<?xml version="1.0" encoding="UTF-8" standalone="no"?><!DOCTYPE svg PUBLIC "-//W3C//DTD SVG 1.1//EN" "http://www.w3.org/Graphics/SVG/1.1/DTD/svg11.dtd"><svg width="100%" height="100%" viewBox="0 0 3042 791" version="1.1" xmlns="http://www.w3.org/2000/svg" xmlns:xlink="http://www.w3.org/1999/xlink" xml:space="preserve" xmlns:serif="http://www.serif.com/" style="fill-rule:evenodd;clip-rule:evenodd;stroke-linejoin:round;stroke-miterlimit:2;"><path d="M112.635,604.887c-10.142,-35.104 -15.751,-72.279 -15.751,-110.679c0,-218.896 177.556,-397.098 395.758,-397.098c218.2,-0 395.754,178.202 395.754,397.098c-0,42.616 -6.758,83.62 -19.208,122.095l87.82,42.463c18.209,-51.429 28.121,-106.842 28.121,-164.558c0,-272.55 -220.966,-494.208 -492.566,-494.208c-271.674,0 -492.563,221.658 -492.563,494.208c0,57.716 9.988,112.975 28.197,164.558l84.361,-40.775l-0,-13.104l0.077,-0Z" style="fill:#f5a800;fill-rule:nonzero;"/><path d="M292.957,590.628l-0,-96.495l-126.541,-0l0,157.658l-119.703,57.792l0,71.204l891.933,-0l-0,-71.204l-446.004,-215.45l-199.685,96.495Z" style="fill:#00a0df;fill-rule:nonzero;"/><path d="M1323.65,184.869l-0,87.989c-0,17.32 2.767,30.045 8.45,38.4c-8.604,7.587 -18.825,11.266 -30.963,11.266c-11.525,0 -19.437,-2.608 -23.741,-7.896c-4.3,-5.287 -6.455,-13.566 -6.455,-24.833l0,-94.043c0,-12.11 -1.458,-20.617 -4.454,-25.369c-2.92,-4.829 -8.454,-7.358 -16.441,-7.358c-14.217,-0 -27.509,6.515 -39.8,19.468l-0,137.194c-4.071,0.766 -8.221,1.304 -12.675,1.533c-4.459,0.229 -8.992,0.383 -13.525,0.383c-4.534,0 -9.067,-0.154 -13.521,-0.383c-4.379,-0.229 -8.604,-0.842 -12.6,-1.533l-0,-199.814l2.379,-2.835l20.054,-0c15.058,-0 24.354,7.97 28.196,24.22c19.592,-16.939 39.108,-25.447 58.317,-25.447c19.208,0 33.575,6.208 42.795,18.702c9.296,12.57 13.984,29.355 13.984,50.356Z" style="fill:#00a0df;fill-rule:nonzero;"/><path d="M1529.01,236.45l-110.942,0c0.767,14.716 4.15,26.52 10.217,34.874c5.995,8.509 16.52,12.725 31.579,12.725c15.521,0 33.346,-4.6 53.55,-13.644c7.762,7.969 12.679,18.703 14.829,31.886c-21.438,15.329 -47.25,22.992 -77.217,22.992c-28.425,-0 -49.937,-8.738 -64.537,-26.367c-14.596,-17.629 -21.896,-43.764 -21.896,-78.561c-0,-16.172 1.921,-30.658 5.608,-43.765c3.767,-13.029 9.221,-24.22 16.521,-33.417c7.296,-9.274 16.133,-16.479 26.504,-21.614c10.45,-5.135 22.359,-7.664 35.879,-7.664c13.6,-0 25.663,2.069 36.188,6.208c10.529,4.215 19.362,10.117 26.508,17.782c7.3,7.664 12.675,16.785 16.288,27.209c3.612,10.424 5.379,21.92 5.379,34.26c-0,6.745 -0.383,13.106 -1.229,19.238c-0.771,5.978 -1.846,11.957 -3.229,17.858Zm-77.521,-84.692c-20.9,-0 -32.117,15.865 -33.804,47.596l66.766,0l0,-4.752c0,-12.953 -2.612,-23.3 -7.991,-31.041c-5.38,-7.971 -13.755,-11.803 -24.971,-11.803Z" style="fill:#00a0df;fill-rule:nonzero;"/><path d="M1591.78,295.466l-40.179,-173.217c10.446,-4.292 19.975,-6.438 28.35,-6.438c8.45,0 14.596,1.763 18.517,5.365c3.842,3.603 6.45,9.274 7.912,16.786l15.288,74.269c5.379,26.366 9.221,48.057 11.679,64.993c0.463,2.15 1.537,3.221 3.229,3.221l27.734,-159.805c8.375,-1.61 18.745,-2.453 31.425,-2.453c12.525,0 22.816,0.843 30.579,2.453l27.733,156.584c0.233,2.15 1.308,3.221 3.229,3.221c4.763,-27.975 8.988,-50.739 12.446,-68.214l20.054,-92.818c5.609,-1.533 13.6,-2.375 23.892,-2.375c10.296,-0 18.442,1.379 24.358,4.445l1.688,3.219l-48.25,194.831c-8.834,1.304 -20.284,2.07 -34.417,2.07c-14.138,0 -23.667,-1.608 -28.813,-4.829c-5.149,-3.216 -8.454,-10.037 -9.987,-20.616l-8.912,-49.667c-5.38,-30.888 -9.684,-57.56 -12.909,-79.864l-2.383,0c-1.921,14.026 -6.3,40.546 -13.213,79.558l-13.679,73.348c-9.371,1.304 -20.975,2.07 -34.954,2.07c-13.983,0 -23.587,-1.837 -28.812,-5.287c-5.38,-3.375 -9.221,-10.425 -11.605,-20.85Z" style="fill:#00a0df;fill-rule:nonzero;"/><path d="M2122.61,295.466c-1.304,4.754 -3.837,9.887 -7.296,15.329c-3.458,5.367 -6.916,9.354 -10.375,12.113c-17.516,-2.146 -30.116,-9.888 -38.258,-23.071c-17.442,16.937 -36.496,25.446 -57.162,25.446c-10.375,-0 -19.592,-1.688 -27.43,-5.059c-7.912,-3.296 -14.52,-7.896 -19.745,-13.491c-5.225,-5.671 -9.067,-12.109 -11.68,-19.313c-2.533,-7.358 -3.841,-14.792 -3.841,-22.534c-0,-11.267 1.921,-21.231 5.841,-29.661c3.917,-8.508 9.296,-15.56 16.517,-21.231c6.992,-5.596 15.367,-9.964 24.971,-12.954c9.525,-2.989 19.821,-4.445 31.192,-4.445c14.445,0 25.662,0.383 33.808,1.226l0,-10.883c0,-20.388 -9.913,-30.735 -29.738,-30.735c-13.441,-0 -33.879,4.675 -61.233,14.18c-7.529,-8.278 -12.062,-20.848 -13.596,-37.557c28.425,-12.11 57.696,-18.088 88.046,-18.088c20.054,-0 36.571,5.595 49.479,16.862c12.909,11.343 19.363,28.435 19.363,51.199l-0,82.777c-0.079,14.257 3.687,24.219 11.137,29.89Zm-101.337,-10.117c13.366,0 25.891,-5.9 37.725,-17.704l-0,-35.18c-4.304,-0.23 -8.454,-0.46 -12.371,-0.843c-4.071,-0.23 -7.913,-0.307 -11.754,-0.307c-11.834,0 -20.821,2.223 -26.892,6.669c-6.225,4.445 -9.221,11.726 -9.221,21.92c0,8.048 2.075,14.408 5.992,18.854c4.075,4.291 9.604,6.591 16.521,6.591Z" style="fill:#00a0df;fill-rule:nonzero;"/><path d="M2281.5,133.591c7.529,-9.964 18.671,-15.712 33.346,-17.398c3.687,2.605 7.454,6.667 10.908,12.11c3.458,5.365 5.613,10.27 6.454,14.869c-7.529,6.438 -11.216,17.628 -11.216,33.417l-0.001,112.594c0.001,23.375 -1.92,42.841 -5.683,58.17c-3.766,15.33 -9.375,27.596 -16.829,36.717c-7.529,9.121 -16.979,15.558 -28.271,19.158c-11.371,3.605 -24.741,5.367 -40.108,5.367c-26.738,0 -51.013,-4.521 -72.758,-13.642c-0,-6.441 1.308,-13.416 3.841,-21.004c2.538,-7.508 5.763,-13.412 9.45,-17.704c16.825,8.354 35.038,12.417 54.242,12.417c29.967,-0 45.025,-16.017 45.025,-47.904l-0,-15.713c-15.288,12.113 -31.733,18.167 -49.404,18.167c-23.588,-0 -41.409,-9.196 -53.321,-27.746c-11.983,-18.625 -17.9,-44.148 -17.9,-76.646c-0,-16.402 1.996,-31.041 6.146,-43.994c4.225,-12.953 9.833,-23.913 16.904,-32.881c6.992,-8.967 15.287,-15.942 24.737,-20.77c9.45,-4.752 19.442,-7.282 30.121,-7.282c21.971,-0.153 40.104,6.438 54.317,19.698Zm-11.675,128.381l-0,-91.591c-11.45,-10.807 -22.746,-16.172 -33.346,-16.172c-10.758,-0 -18.979,5.595 -24.971,16.861c-5.837,11.268 -8.837,27.44 -8.837,48.44c-0,21.001 2.766,36.33 8.22,46.218c5.534,9.809 12.68,14.717 21.517,14.717c14.213,0 26.659,-6.133 37.417,-18.473Z" style="fill:#00a0df;fill-rule:nonzero;"/><path d="M2538.11,295.466c-1.384,4.754 -3.842,9.887 -7.3,15.329c-3.459,5.367 -6.992,9.354 -10.45,12.113c-17.438,-2.146 -30.117,-9.888 -38.184,-23.071c-17.441,16.937 -36.496,25.446 -57.162,25.446c-10.371,-0 -19.592,-1.688 -27.505,-5.059c-7.837,-3.296 -14.445,-7.896 -19.67,-13.491c-5.3,-5.671 -9.067,-12.109 -11.6,-19.313c-2.538,-7.358 -3.842,-14.792 -3.842,-22.534c0,-11.267 1.921,-21.231 5.838,-29.661c3.995,-8.508 9.45,-15.56 16.52,-21.231c7.067,-5.596 15.442,-9.964 24.971,-12.954c9.604,-2.989 19.975,-4.445 31.192,-4.445c14.446,0 25.662,0.383 33.804,1.226l0,-10.883c0,-20.388 -9.908,-30.735 -29.733,-30.735c-13.367,-0 -33.804,4.675 -61.154,14.18c-7.53,-8.278 -12.063,-20.848 -13.68,-37.557c28.43,-12.11 57.78,-18.088 88.125,-18.088c20.055,-0 36.575,5.595 49.479,16.862c12.834,11.343 19.209,28.435 19.209,51.199l-0,82.777c-0.229,14.257 3.612,24.219 11.142,29.89Zm-101.342,-10.117c13.371,0 26.046,-5.9 37.725,-17.704l-0,-35.18c-4.304,-0.23 -8.45,-0.46 -12.446,-0.843c-4.071,-0.23 -7.837,-0.307 -11.679,-0.307c-11.833,0 -20.821,2.223 -26.892,6.669c-6.221,4.445 -9.216,11.726 -9.216,21.92c-0,8.048 2.07,14.408 5.991,18.854c3.917,4.291 9.45,6.591 16.517,6.591Z" style="fill:#00a0df;fill-rule:nonzero;"/><path d="M2640.6,160.265l0,159.422c-4.071,0.766 -8.221,1.304 -12.675,1.533c-4.379,0.229 -8.912,0.383 -13.525,0.383c-4.533,0 -9.066,-0.154 -13.446,-0.383c-4.454,-0.229 -8.833,-0.842 -13.058,-1.533l-0,-140.414c-0,-14.793 -6.071,-22.228 -18.133,-22.228l-5.3,0c-1.538,-5.901 -2.384,-12.11 -2.384,-18.547c0,-5.902 0.846,-12.11 2.384,-18.625c6.22,-0.46 11.829,-0.92 17.133,-1.457c5.221,-0.306 9.679,-0.536 13.442,-0.536l6.991,-0c12.063,-0 21.517,3.679 28.275,11.267c6.838,7.511 10.296,17.935 10.296,31.118Zm-60.696,-118.647c6.225,-3.526 14.905,-5.289 26.509,-5.289c6.683,0 12.212,0.613 16.287,1.533c4.146,1.073 7.146,2.376 9.067,3.832c1.921,1.456 3.071,4.216 3.608,8.278c0.463,4.062 0.771,8.278 0.771,12.493c-0.771,13.643 -2.458,21.231 -4.996,22.534c-2.533,1.303 -10.833,2.606 -25.046,4.062c-15.058,-0.46 -23.816,-2.529 -26.429,-5.978c-2.537,-3.449 -3.841,-10.348 -3.841,-20.618c-0,-7.665 1.304,-14.639 4.07,-20.847Z" style="fill:#00a0df;fill-rule:nonzero;"/><path d="M2860.95,184.869l0,87.989c0,17.32 2.846,30.045 8.454,38.4c-8.604,7.587 -18.825,11.266 -30.887,11.266c-11.525,0 -19.513,-2.608 -23.817,-7.896c-4.304,-5.287 -6.454,-13.566 -6.454,-24.833l0,-94.043c0,-12.11 -1.458,-20.617 -4.379,-25.369c-2.996,-4.829 -8.529,-7.358 -16.521,-7.358c-14.212,-0 -27.504,6.515 -39.796,19.468l0,137.194c-4.071,0.766 -8.221,1.304 -12.679,1.533c-4.379,0.229 -8.912,0.383 -13.521,0.383c-4.533,0 -9.066,-0.154 -13.446,-0.383c-4.454,-0.229 -8.604,-0.842 -12.675,-1.533l0,-199.814l2.38,-2.835l20.054,-0c15.058,-0 24.354,7.97 28.196,24.22c19.591,-16.939 39.108,-25.447 58.316,-25.447c19.359,0 33.575,6.208 42.792,18.702c9.3,12.57 13.983,29.355 13.983,50.356Z" style="fill:#00a0df;fill-rule:nonzero;"/><path d="M1399.25,712.953l-0,-128.991c-0,-30.813 -6.763,-55.417 -20.283,-73.809c-13.601,-18.32 -34.575,-27.516 -62.846,-27.516c-27.967,-0 -55.704,11.954 -83.209,36.1l0,-103.779c0,-17.705 -3.075,-30.196 -9.146,-37.25c-6.145,-7.13 -16.899,-10.73 -32.191,-10.73l-30.117,0l-3.533,4.217l-0,410.588c6.3,1.225 12.521,1.916 18.821,2.375c6.379,0.383 12.604,0.612 18.904,0.612c6.683,0 13.137,-0.229 19.129,-0.612c6.071,-0.384 12.063,-1.15 18.054,-2.375l0,-201.425c18.059,-19.009 37.496,-28.434 58.392,-28.434c11.833,0 19.9,3.6 24.279,10.654c4.304,7.05 6.454,19.542 6.454,37.325l0,137.963c0,16.554 3.075,28.817 9.45,36.483c6.3,7.663 17.9,11.496 34.883,11.496c17.671,0 32.884,-5.517 45.405,-16.554c-8.221,-12.188 -12.446,-31.042 -12.446,-56.338Z" style="fill:#898a8d;fill-rule:nonzero;"/><path d="M1681.29,512.833c27.966,28.054 41.95,68.675 41.95,121.945c-0,23.605 -2.996,45.067 -8.834,64.225c-5.841,19.242 -14.446,35.413 -25.737,48.825c-11.221,13.413 -25.05,23.759 -41.567,31.042c-16.521,7.358 -35.266,10.958 -56.012,10.958c-20.821,0 -39.488,-3.6 -55.854,-10.958c-16.367,-7.283 -30.117,-17.629 -41.334,-31.042c-11.221,-13.412 -19.671,-29.737 -25.662,-48.825c-5.842,-19.158 -8.838,-40.466 -8.838,-64.225c0,-47.754 11.45,-85.616 34.113,-113.437c22.896,-27.821 55.396,-41.771 97.425,-41.771c37.029,0.154 67.15,11.192 90.35,33.263Zm-90.2,24.912c-34.65,0 -52.013,32.421 -52.013,97.108c0,64.459 17.363,96.571 52.013,96.571c34.958,0 52.554,-32.112 52.554,-96.571c-0.154,-64.687 -17.596,-97.108 -52.554,-97.108Z" style="fill:#898a8d;fill-rule:nonzero;"/><path d="M1783.48,685.745l0,-129.604c0,-24.529 -4.071,-43.229 -12.446,-56.258c12.984,-11.038 27.967,-16.559 45.175,-16.559c17.059,0 28.813,4.063 35.113,12.113c6.375,8.125 9.45,20.233 9.45,36.483l-0,137.963c-0,17.012 2.15,29.125 6.454,36.483c4.3,7.279 12.446,10.883 24.279,10.883c20.742,0 40.259,-9.121 58.392,-27.212l-0,-202.034c8.604,-1.916 21.279,-2.991 38.108,-2.991c16.746,-0 29.809,0.921 39.258,2.991l0,210.159c0,23.3 5.455,39.704 16.442,49.208c-1.921,7.05 -5.379,14.408 -10.296,21.921c-4.837,7.587 -10.141,13.183 -15.595,17.167c-28.734,-2.759 -48.634,-16.784 -59.621,-42.08c-30.271,28.438 -61.542,42.692 -93.809,42.692c-26.433,0 -46.483,-9.271 -60.237,-27.821c-13.754,-18.625 -20.667,-43.075 -20.667,-73.504Z" style="fill:#898a8d;fill-rule:nonzero;"/><path d="M2083.27,760.937c0.387,-8.663 2.846,-18.242 7.379,-28.821c4.608,-10.421 9.679,-18.7 15.671,-24.525c31.117,16.862 58.471,25.371 81.979,25.371c13.063,-0 23.588,-2.529 31.579,-7.667c7.992,-5.133 12.063,-11.958 12.063,-20.771c-0,-13.796 -10.68,-24.754 -31.888,-33.187l-33.112,-12.492c-49.634,-18.087 -74.371,-47.062 -74.371,-86.992c-0,-14.183 2.687,-26.979 7.912,-38.325c5.38,-11.266 12.755,-20.925 22.434,-28.97c9.604,-8.05 21.208,-14.259 34.575,-18.705c13.366,-4.291 28.275,-6.512 44.791,-6.512c7.53,-0 15.75,0.612 25.125,1.837c9.142,1.15 18.592,2.838 28.042,5.059c9.45,2.15 18.517,4.679 27.121,7.437c8.608,2.759 16.137,5.746 22.512,8.813c0,9.887 -2.075,20.158 -5.916,30.812c-3.917,10.729 -9.142,18.625 -15.825,23.759c-31.117,-13.796 -58.084,-20.771 -80.825,-20.771c-10.296,-0 -18.288,2.529 -24.125,7.437c-5.842,4.979 -8.838,11.417 -8.838,19.313c0,12.262 9.758,21.996 29.504,29.05l35.954,13.029c25.971,9.121 45.334,21.537 57.855,37.325c12.525,15.867 18.9,34.183 18.9,55.033c-0,28.05 -10.446,50.509 -31.346,67.292c-20.896,16.787 -50.784,25.142 -89.738,25.142c-38.187,-0 -74.066,-9.58 -107.412,-28.971Z" style="fill:#898a8d;fill-rule:nonzero;"/><path d="M2591.36,659.687l-162.883,-0c1.229,21.691 6.225,38.783 15.058,51.2c8.838,12.491 24.279,18.7 46.404,18.7c22.821,-0 48.942,-6.667 78.526,-20.079c11.291,11.8 18.591,27.437 21.816,46.75c-31.421,22.537 -69.146,33.804 -113.246,33.804c-41.72,-0 -73.3,-12.954 -94.812,-38.863c-21.358,-25.75 -32.113,-64.304 -32.113,-115.121c0,-23.758 2.767,-45.066 8.221,-64.229c5.529,-19.237 13.521,-35.562 24.2,-49.204c10.604,-13.642 23.513,-24.221 38.954,-31.654c15.288,-7.438 32.809,-11.267 52.555,-11.267c20.049,0 37.72,3.142 53.012,9.121c15.367,6.129 28.35,14.867 39.029,25.983c10.604,11.342 18.592,24.6 23.896,39.93c5.225,15.408 7.988,32.191 7.988,50.358c-0,9.887 -0.613,19.312 -1.842,28.204c-1.308,8.892 -2.842,17.783 -4.763,26.367Zm-114.02,-124.321c-30.655,-0 -47.171,23.225 -49.555,69.904l97.959,0l-0,-7.054c-0,-18.929 -3.917,-34.183 -11.829,-45.604c-7.763,-11.496 -19.9,-17.246 -36.575,-17.246Z" style="fill:#898a8d;fill-rule:nonzero;"/><path d="M2636.76,760.937c0.383,-8.663 2.92,-18.242 7.454,-28.821c4.533,-10.421 9.679,-18.7 15.595,-24.525c31.117,16.862 58.467,25.371 81.98,25.371c13.062,-0 23.587,-2.529 31.575,-7.667c8.146,-5.133 12.062,-11.958 12.062,-20.771c0,-13.796 -10.6,-24.754 -31.883,-33.187l-33.113,-12.492c-49.558,-18.087 -74.295,-47.062 -74.295,-86.992c-0,-14.183 2.612,-26.979 7.987,-38.325c5.379,-11.266 12.754,-20.925 22.438,-28.97c9.604,-8.05 21.129,-14.259 34.575,-18.705c13.366,-4.291 28.27,-6.512 44.791,-6.512c7.375,-0 15.75,0.612 25.121,1.837c9.146,1.15 18.596,2.838 28.046,5.059c9.45,2.15 18.517,4.679 27.121,7.437c8.604,2.759 16.133,5.746 22.433,8.813c0,9.887 -1.842,20.158 -5.838,30.812c-3.92,10.729 -9.145,18.625 -15.904,23.759c-31.041,-13.796 -58.008,-20.771 -80.904,-20.771c-10.216,-0 -18.283,2.529 -24.125,7.437c-5.837,4.979 -8.833,11.417 -8.833,19.313c-0,12.262 9.833,21.996 29.5,29.05l36.033,13.029c25.892,9.121 45.254,21.537 57.779,37.325c12.6,15.867 18.9,34.183 18.9,55.033c0,28.05 -10.37,50.509 -31.27,67.292c-20.821,16.787 -50.784,25.142 -89.817,25.142c-38.183,-0 -74.063,-9.58 -107.408,-28.971Z" style="fill:#898a8d;fill-rule:nonzero;"/><path d="M3041.05,102.398c0,35.334 -27.738,63.156 -63.696,63.156c-35.65,-0 -64.154,-27.822 -64.154,-63.156c-0,-34.643 28.429,-62.466 64.154,-62.466c35.958,0 63.696,27.823 63.696,62.466Zm-111.946,0c0,27.822 20.438,49.896 48.484,49.896c27.349,0 47.404,-22.074 47.404,-49.589c-0,-27.822 -20.055,-50.203 -47.792,-50.203c-27.579,0 -48.096,22.381 -48.096,49.896Zm38.342,32.728l-14.446,-0l-0,-62.466c5.683,-1.227 13.6,-1.916 23.896,-1.916c11.675,-0 17.054,1.916 21.587,4.522c3.459,2.682 6.146,7.664 6.146,13.719c0,6.822 -5.3,12.187 -12.908,14.486l-0,0.69c6.071,2.299 9.375,6.822 11.296,15.252c1.92,9.428 2.995,13.337 4.533,15.56l-15.521,-0c-1.921,-2.223 -2.996,-8.048 -4.917,-15.176c-1.154,-6.898 -4.841,-9.964 -12.908,-9.964l-6.758,-0l-0,25.293Zm0.304,-35.411l6.837,0c7.992,0 14.446,-2.605 14.446,-9.12c0,-5.749 -4.15,-9.427 -13.216,-9.427c-3.842,-0 -6.45,0.382 -8.067,0.689l0,17.858Z" style="fill:#898a8d;fill-rule:nonzero;"/></svg>